<?xml version="1.0" encoding="utf-8"?>
<!-- Generator: Adobe Illustrator 24.1.2, SVG Export Plug-In . SVG Version: 6.00 Build 0)  -->
<svg version="1.1" id="Camada_1" xmlns="http://www.w3.org/2000/svg" xmlns:xlink="http://www.w3.org/1999/xlink" x="0px" y="0px"
	 viewBox="0 0 18.6 21" style="enable-background:new 0 0 18.6 21;" xml:space="preserve">
<style type="text/css">
	.st0{enable-background:new    ;}
	.st1{fill:#1F88F0;}
	.st2{fill:#0070E0;}
	.st3{fill:#00A5FF;}
	.st4{fill:#EFF4FF;}
</style>
<g>
	<g>
		<g class="st0">
			<g>
				<polygon class="st1" points="18.6,5.4 18.6,15.6 9.3,21 9.3,10.8 				"/>
			</g>
			<g>
				<polygon class="st2" points="9.3,10.8 9.3,21 0,15.6 0,5.4 				"/>
			</g>
			<g>
				<polygon class="st3" points="18.6,5.4 9.3,10.8 0,5.4 9.3,0 				"/>
			</g>
		</g>
	</g>
	<g>
		<g>
			<path class="st4" d="M2.8,10.9C3,11,3.1,11.2,3.1,11.4l0,1.9c0,0.2-0.2,0.3-0.3,0.2c-0.2-0.1-0.3-0.4-0.3-0.6l0-1.9
				C2.5,10.8,2.6,10.7,2.8,10.9z"/>
		</g>
		<g>
			<path class="st4" d="M4.4,11.8c0.2,0.1,0.3,0.4,0.3,0.6l0,1.9c0,0.2-0.1,0.3-0.3,0.2C4.2,14.4,4,14.1,4,13.9L4,12
				C4.1,11.7,4.2,11.7,4.4,11.8z"/>
		</g>
		<g>
			<path class="st4" d="M6,12.7c0.2,0.1,0.3,0.4,0.3,0.6l0,1.9c0,0.2-0.2,0.3-0.3,0.2c-0.2-0.1-0.3-0.4-0.3-0.6l0-1.9
				C5.6,12.7,5.8,12.6,6,12.7z"/>
		</g>
	</g>
</g>
<g>
</g>
<g>
</g>
<g>
</g>
<g>
</g>
<g>
</g>
<g>
</g>
<g>
</g>
<g>
</g>
<g>
</g>
<g>
</g>
<g>
</g>
</svg>
