<?xml version="1.0" encoding="utf-8"?>
<!-- Generator: Adobe Illustrator 25.2.1, SVG Export Plug-In . SVG Version: 6.00 Build 0)  -->
<svg version="1.1" id="Camada_1" xmlns="http://www.w3.org/2000/svg" xmlns:xlink="http://www.w3.org/1999/xlink" x="0px" y="0px"
	 viewBox="0 0 237.6 136.1" style="enable-background:new 0 0 237.6 136.1;" xml:space="preserve">
<style type="text/css">
	.st0{fill:url(#SVGID_1_);}
	.st1{fill:url(#SVGID_2_);}
	.st2{fill:#3B4C61;}
	.st3{fill:#2DD7A2;}
	.st4{fill:#EAEEEE;}
	.st5{enable-background:new    ;}
	.st6{fill:url(#SVGID_3_);}
	.st7{fill:#00A5FF;}
	.st8{fill:#EFF4FF;}
	.st9{fill:#0070E0;}
	.st10{fill:url(#SVGID_4_);}
	.st11{fill:url(#SVGID_5_);}
	.st12{fill:#89939A;}
	.st13{fill:none;stroke:#2DD7A2;stroke-width:0.3257;stroke-miterlimit:10;}
</style>
<g>
	<g>
		
			<linearGradient id="SVGID_1_" gradientUnits="userSpaceOnUse" x1="156.2054" y1="148.8382" x2="69.747" y2="-23.4337" gradientTransform="matrix(1 0 0 -1 0 136.5011)">
			<stop  offset="0" style="stop-color:#1C2938"/>
			<stop  offset="0.9958" style="stop-color:#121A24"/>
		</linearGradient>
		<path class="st0" d="M228.3,41.3c4.9,2.8,4.9,7.5,0.1,10.3L89.1,132.5c-4.9,2.8-12.9,2.8-17.8,0L4,93.7c-4.9-2.8-4.9-7.5-0.1-10.3
			l139.3-81c4.9-2.8,12.9-2.8,17.8,0L228.3,41.3z"/>
		<g>
			
				<linearGradient id="SVGID_2_" gradientUnits="userSpaceOnUse" x1="-3.0661" y1="48.1927" x2="235.3379" y2="89.838" gradientTransform="matrix(1 0 0 -1 0 136.5011)">
				<stop  offset="0" style="stop-color:#121A24;stop-opacity:0"/>
				<stop  offset="4.343152e-02" style="stop-color:#14252C;stop-opacity:4.343152e-02"/>
				<stop  offset="0.2969" style="stop-color:#1D6455;stop-opacity:0.2969"/>
				<stop  offset="0.5284" style="stop-color:#249676;stop-opacity:0.5284"/>
				<stop  offset="0.73" style="stop-color:#29B98E;stop-opacity:0.73"/>
				<stop  offset="0.894" style="stop-color:#2CCF9D;stop-opacity:0.894"/>
				<stop  offset="1" style="stop-color:#2DD7A2"/>
			</linearGradient>
			<path class="st1" d="M80.2,135c-3.3,0-6.6-0.7-9.1-2.2L3.9,94C1.4,92.5,0,90.6,0,88.5s1.3-4,3.8-5.4L143.1,2.2
				c5-2.9,13.1-2.9,18.1,0L228.5,41c2.5,1.4,3.9,3.4,3.9,5.4c0,2.1-1.4,4-3.8,5.4l-139.4,81C86.8,134.2,83.5,135,80.2,135z
				 M152.1,0.6c-3.2,0-6.3,0.7-8.7,2.1L4.1,83.7c-2.3,1.3-3.5,3-3.5,4.9c0,1.8,1.3,3.6,3.5,4.9l67.3,38.8c4.8,2.8,12.7,2.8,17.5,0
				l139.3-80.9c2.3-1.3,3.5-3,3.5-4.9c0-1.8-1.3-3.6-3.5-4.9L160.9,2.7C158.4,1.3,155.3,0.6,152.1,0.6z"/>
		</g>
	</g>
	<g>
		<path class="st2" d="M84.7,107.4c3.9,2.2,3.9,5.9,0,8.1s-10.1,2.2-14,0L26.3,89.8c-3.9-2.2-3.9-5.9,0-8.1s10.1-2.2,14,0
			L84.7,107.4z"/>
	</g>
	<g>
		<g>
			<path class="st3" d="M58.3,97.3c0.6,0.3,0.6,0.9,0,1.2l-3.1,1.8c-0.6,0.3-1.6,0.3-2.2,0l-4.4-2.6c-0.6-0.3-0.6-0.9,0-1.2l3.1-1.8
				c0.6-0.3,1.6-0.3,2.2,0l0.4,0.2l1.3-0.1c0.1,0,0.2,0,0.3,0.1l2.2,1.3c0.1,0,0.1,0.1,0.1,0.2L58,97L58.3,97.3z M51.9,98.4
				c0.9,0.5,2.3,0.5,3.2,0c0.9-0.5,0.9-1.3,0-1.8c-0.9-0.5-2.3-0.5-3.2,0C51.1,97.1,51.1,97.9,51.9,98.4"/>
		</g>
	</g>
	<g>
		<path class="st3" d="M41.2,87.1c0.1,0.1,0.2,0.1,0.2,0.2l1.1,2.4c0.2,0.4-0.4,0.7-1.1,0.6l-4.2-0.7c-0.2,0-0.3-0.1-0.4-0.1
			c-0.3-0.2-0.4-0.5,0-0.7l0.8-0.5L34,87.8c-0.2,0-0.3-0.1-0.4-0.1c-0.3-0.2-0.4-0.5,0-0.7l3.1-1.8c0.4-0.2,0.9-0.2,1.2,0
			c0.1,0.1,0.2,0.1,0.2,0.2l1,2.2l0.8-0.5C40.3,86.9,40.8,86.9,41.2,87.1z"/>
	</g>
	<g>
		<g>
			<path class="st4" d="M77.4,109.3c0.3,0.1,0.3,0.4,0,0.6l-2.1,1.2c-0.3,0.2-0.7,0.1-1,0c-0.1-0.1-0.2-0.1-0.2-0.3l-0.2-1.3
				c0-0.2,0.3-0.4,0.7-0.4l2.3,0.1C77.2,109.2,77.3,109.3,77.4,109.3z"/>
		</g>
		<g>
			<path class="st4" d="M72.8,105.9c0.7,0.4,1.4,0.8,2,1.3c0.3,0.2,0.4,0.5,0.2,0.6c-0.9,0.7-2,1.4-3.2,1.9
				c-0.3,0.1-0.8,0.1-1.1-0.1c-0.8-0.4-1.5-0.8-2.2-1.2c-0.7-0.4-1.4-0.8-2-1.3c-0.3-0.2-0.4-0.5-0.1-0.7c0.9-0.7,2-1.4,3.2-1.9
				c0.3-0.1,0.8-0.1,1.1,0.1C71.3,105.1,72.1,105.5,72.8,105.9z"/>
		</g>
	</g>
	<g>
		<g>
			<path class="st2" d="M179.1,60.4c2.2,1.3,2.2,3.4,0,4.7l-21.7,12.6c-2.2,1.3-5.8,1.3-8,0L96.3,47.1c-2.2-1.3-2.2-3.4,0-4.7
				L118,29.8c2.2-1.3,5.8-1.3,8,0L179.1,60.4z"/>
		</g>
		<g>
			<g>
				<g>
					<path class="st4" d="M134,51.6c-0.1,0-0.1,0.1-0.2,0.1l-1.4-0.8c-0.5,0.3-0.4,0.6,0,0.8c0.3,0.2,0.5,0.2,0.7,0.3l-0.2,0.2
						c-0.2,0-0.5-0.1-0.8-0.3c-0.6-0.4-0.6-0.8,0-1.2s1.5-0.4,2.1-0.1C134.8,50.9,134.4,51.4,134,51.6z M133.8,51.3
						c0.2-0.1,0.5-0.4,0.1-0.6c-0.4-0.2-0.9-0.1-1.2,0L133.8,51.3"/>
				</g>
				<g>
					<path class="st4" d="M133.9,49.5l-3.9,1.1l-0.4-0.2l1.9-2.2l0.4,0.2l-0.9,1.1c-0.3,0.3-0.5,0.6-0.8,0.8
						c0.4-0.1,0.9-0.3,1.4-0.4l1.9-0.5L133.9,49.5z"/>
				</g>
				<g>
					<path class="st4" d="M140.8,55.5c-0.1,0-0.1,0.1-0.2,0.1l-1.4-0.8c-0.5,0.3-0.4,0.6,0,0.8c0.3,0.2,0.5,0.2,0.7,0.3l-0.2,0.2
						c-0.2,0-0.5-0.1-0.8-0.3c-0.6-0.4-0.6-0.8,0-1.2s1.5-0.4,2.1-0.1C141.5,54.8,141.1,55.3,140.8,55.5z M140.5,55.2
						c0.2-0.1,0.5-0.4,0.1-0.6c-0.4-0.2-0.9-0.1-1.2,0L140.5,55.2"/>
				</g>
				<g>
					<path class="st4" d="M149.9,59.6c0.6,0.3,0.6,0.8-0.1,1.2c-0.8,0.4-1.6,0.3-2.1,0c-0.6-0.3-0.6-0.8,0.1-1.2
						C148.4,59.3,149.3,59.3,149.9,59.6z M148,60.7c0.4,0.2,1,0.2,1.4-0.1c0.3-0.2,0.6-0.6,0.2-0.8c-0.4-0.3-1-0.1-1.4,0.1
						C147.7,60.1,147.6,60.5,148,60.7"/>
				</g>
				<g>
					<path class="st4" d="M148.6,58.9L148.6,58.9l-0.3,0.3l-0.1-0.1c-0.3-0.2-0.6-0.1-1,0l-0.2,0.1l-1.1,0.6l-0.4-0.2l1.4-0.8
						c0.2-0.1,0.4-0.3,0.6-0.4l0.3,0.2l-0.4,0.2l0,0C147.9,58.7,148.3,58.7,148.6,58.9z"/>
				</g>
				<g>
					<path class="st4" d="M147.5,57.7c0,0.2-0.1,0.3-0.3,0.5c-0.3,0.2-0.5,0.2-0.8,0.2c-0.4,0-0.8-0.1-1.2-0.3
						c-0.1-0.1-0.2-0.1-0.3-0.2l-1.1,0.7l-0.4-0.2l2.8-1.6c0.2,0.1,0.5,0.2,0.8,0.4C147.3,57.3,147.5,57.5,147.5,57.7z M145.5,57.9
						c0.4,0.3,0.9,0.3,1.3,0.1c0.4-0.2,0.3-0.5-0.1-0.7c-0.2-0.1-0.3-0.2-0.4-0.2l-1.1,0.6C145.3,57.7,145.4,57.8,145.5,57.9"/>
				</g>
				<g>
					<path class="st4" d="M142.4,57.1c-0.2,0.1-0.4,0.2-0.5,0.3l-0.3-0.2l0.3-0.2c-0.3,0.1-0.8,0-1.1-0.2c-0.5-0.3-0.5-0.8,0.2-1.1
						c0.7-0.4,1.5-0.4,2-0.1c0.3,0.2,0.4,0.4,0.3,0.5l1.2-0.7l0.4,0.2L142.4,57.1z M142.3,56.7l0.4-0.2l0.1-0.1
						c0.2-0.2,0.2-0.4-0.1-0.6c-0.4-0.2-1-0.2-1.4,0.1c-0.4,0.2-0.6,0.6-0.1,0.8c0.2,0.1,0.6,0.2,1,0.1L142.3,56.7"/>
				</g>
				<g class="st5">
					<g>
						<path class="st4" d="M137.3,52c-0.1-0.1-0.1-0.2,0-0.3s0.3-0.1,0.5,0c0.1,0.1,0.1,0.2,0,0.3S137.5,52.1,137.3,52z"/>
					</g>
					<g>
						<polygon class="st4" points="134.8,53.3 136.8,52.1 137.2,52.4 135.1,53.5 						"/>
					</g>
					<g>
						<path class="st4" d="M139.7,52.7c0.2,0.1,0.4,0.3,0.4,0.4l-0.4,0.1c0-0.1-0.1-0.2-0.3-0.3c-0.4-0.2-0.8-0.1-1.1,0.1l-0.1,0.1
							l1.2,0.7l-2,1.2l-0.4-0.2l1.8-1l-0.8-0.5l-1.8,1l-0.4-0.2l1.8-1l-0.3-0.2l0.3-0.2l0.3,0.2l0.1-0.1
							C138.5,52.4,139.1,52.3,139.7,52.7z"/>
					</g>
				</g>
				<g>
					<path class="st4" d="M136.4,51.8L136.4,51.8l-0.3,0.3L136,52c-0.3-0.2-0.6-0.1-1,0l-0.2,0.1l-1.1,0.6l-0.4-0.2l1.4-0.8
						c0.2-0.1,0.4-0.3,0.6-0.4l0.3,0.2l-0.4,0.2l0,0C135.7,51.7,136.1,51.7,136.4,51.8z"/>
				</g>
				<g>
					<polygon class="st4" points="154.8,61.4 151.8,63.2 151.5,63 154.4,61.2 					"/>
				</g>
				<g>
					<path class="st4" d="M155.3,63.9c-0.1,0-0.1,0.1-0.2,0.1l-1.4-0.8c-0.5,0.3-0.4,0.6,0,0.8c0.3,0.2,0.5,0.2,0.7,0.3l-0.2,0.2
						c-0.2,0-0.5-0.1-0.8-0.3c-0.6-0.4-0.6-0.8,0-1.2s1.5-0.4,2.1-0.1C156,63.2,155.6,63.6,155.3,63.9z M155,63.6
						c0.2-0.1,0.5-0.4,0.1-0.6c-0.4-0.2-0.9-0.1-1.2,0L155,63.6"/>
				</g>
				<g>
					<path class="st4" d="M153.2,60.5c0.2,0.1,0.4,0.3,0.4,0.4l-0.4,0.1c0-0.1-0.1-0.2-0.3-0.3c-0.4-0.2-0.8-0.1-1.1,0.1l-0.1,0.1
						l1.2,0.7l-2,1.2l-0.4-0.2l1.8-1l-0.8-0.5l-1.8,1l-0.4-0.2l1.8-1l-0.3-0.2l0.3-0.2l0.3,0.2l0.1-0.1
						C152,60.1,152.6,60.1,153.2,60.5z"/>
				</g>
				<g class="st5">
					<g>
						<path class="st4" d="M125.5,54c-0.3,0.3-0.5,0.5-0.6,0.6l-0.4-0.2c0-0.1,0.2-0.3,0.5-0.5c0.3-0.3,0.3-0.4,0-0.7l-0.3-0.2
							l-1.2,0.7l-0.4-0.2l2.8-1.6c0.2,0.1,0.5,0.2,0.8,0.4c0.4,0.2,0.6,0.4,0.6,0.6c0,0.2-0.1,0.3-0.3,0.4c-0.4,0.2-0.9,0.2-1.3,0.1
							l0,0C125.8,53.6,125.7,53.7,125.5,54z M125.3,53c0.4,0.2,0.9,0.2,1.2,0.1c0.4-0.2,0.3-0.5-0.1-0.7c-0.2-0.1-0.3-0.2-0.4-0.2
							l-1,0.6L125.3,53"/>
					</g>
					<g>
						<path class="st4" d="M127.3,55.4c-0.2,0.1-0.3,0.2-0.5,0.3l-0.3-0.2l0.2-0.2l0,0c-0.3,0-0.6,0-0.9-0.2c-0.4-0.2-0.3-0.5,0-0.7
							c0.5-0.3,1.2-0.2,2,0.3l0,0l0,0c0.2-0.1,0.4-0.3,0-0.5c-0.2-0.1-0.4-0.2-0.7-0.2l0.2-0.2c0.3,0,0.6,0.1,0.9,0.3
							c0.6,0.4,0.4,0.7-0.1,0.9L127.3,55.4z M127.2,55l0.3-0.2h-0.1c-0.4-0.2-0.9-0.4-1.2-0.2c-0.2,0.1-0.2,0.3,0,0.4
							c0.3,0.2,0.6,0.2,0.8,0.1L127.2,55"/>
					</g>
				</g>
				<g>
					<path class="st4" d="M130.5,55.4c0.3,0.2,0.6,0.5-0.1,0.9l-1.2,0.7l-0.4-0.2l1.2-0.7c0.3-0.2,0.5-0.4,0.1-0.6
						c-0.2-0.1-0.6-0.2-0.9-0.1l-0.2,0.1l-1.2,0.7l-0.4-0.2l1.5-0.9c0.2-0.1,0.4-0.2,0.5-0.3l0.3,0.2l-0.3,0.2l0,0
						C129.8,55.1,130.2,55.2,130.5,55.4z"/>
				</g>
				<g>
					<path class="st4" d="M136.3,57.9c0.6,0.3,0.4,0.8-0.5,1.3s-1.8,0.6-2.4,0.3c-0.5-0.3-0.4-0.8,0.5-1.3
						C134.8,57.6,135.7,57.5,136.3,57.9z M133.7,59.3c0.4,0.2,1,0.1,1.7-0.3c0.7-0.4,0.9-0.8,0.6-1c-0.3-0.2-1-0.1-1.7,0.3
						C133.5,58.8,133.4,59.1,133.7,59.3"/>
				</g>
				<g>
					<path class="st4" d="M133.1,55.8l-1.9,1.1l0,0c0.1,0,0.3,0,0.4,0l1.3-0.1l0.4,0.3h-1.6l-0.3,1.2l-0.5-0.3l0.3-1h-0.4l-0.8,0.4
						l-0.4-0.2l3-1.7L133.1,55.8z"/>
				</g>
				<g>
					<polygon class="st4" points="138.6,59.3 135.9,60.9 135.5,60.7 137.9,59.3 137.9,59.3 137.2,59.1 137.4,58.9 138.3,59.1 					
						"/>
				</g>
			</g>
		</g>
		<g>
			<g>
				
					<linearGradient id="SVGID_3_" gradientUnits="userSpaceOnUse" x1="109.4496" y1="93.5718" x2="128.537" y2="93.5718" gradientTransform="matrix(1 0 0 -1 0 136.5011)">
					<stop  offset="0" style="stop-color:#2DD840"/>
					<stop  offset="1" style="stop-color:#2DD7A2"/>
				</linearGradient>
				<path class="st6" d="M125.8,39.1c3.7,2.2,3.7,5.7-0.1,7.8c-3,1.7-7.4,2-10.9,1c0.9,0.3,2,0.4,3,0.5c2.2-1.3,2.2-3.4,0-4.7
					c-2.3-1.3-5.9-1.3-8.2,0c0,0,0,0.1,0,0.2c0.2,0.6,0.5,1.2,1.1,1.7c-2-2.1-1.5-4.8,1.7-6.6C116,36.9,122,36.9,125.8,39.1
					C125.7,39,125.8,39,125.8,39.1z M118.6,43.4c1.4,0.8,3.6,0.8,5,0s1.4-2.1,0-2.9l0,0c-1.4-0.8-3.6-0.8-5,0
					C117.2,41.2,117.2,42.5,118.6,43.4L118.6,43.4"/>
			</g>
			<g>
				<path class="st2" d="M117.7,43.7C117.8,43.7,117.8,43.7,117.7,43.7c2.3,1.3,2.3,3.4,0,4.8c-1.3-0.1-2.6-0.4-3.8-0.8h-0.1l0,0
					l0,0c0,0,0,0-0.1,0l0,0c-0.5-0.2-1-0.4-1.5-0.7h-0.1c0,0-0.1,0-0.1-0.1c-0.6-0.3-1-0.7-1.4-1.1l0,0l0,0
					c-0.5-0.6-0.9-1.1-1.1-1.7c0-0.1,0-0.2,0-0.2C111.8,42.3,115.5,42.4,117.7,43.7z"/>
			</g>
		</g>
		<g>
			<g>
				<g>
					<path class="st7" d="M173.3,60.3c1.7,1,1.7,2.6,0,3.6c-1.7,1-4.5,1-6.2,0c-1.7-1-1.7-2.6,0-3.6S171.6,59.3,173.3,60.3z"/>
				</g>
			</g>
			<g>
				<polygon class="st8" points="172.3,61.9 172.5,62.5 168.3,62.8 167.9,61.5 169,61.4 169.2,62.1 				"/>
			</g>
		</g>
	</g>
	<g>
		<g>
			<path class="st9" d="M79.3,77.6c0.8,0.5,0.8,1.3,0,1.7l-12.6,7.3c-0.8,0.5-2.2,0.5-3,0s-0.8-1.3,0-1.7l12.6-7.3
				C77.2,77.2,78.5,77.2,79.3,77.6z"/>
		</g>
		<g class="st5">
			<g>
				
					<linearGradient id="SVGID_4_" gradientUnits="userSpaceOnUse" x1="79.5" y1="50.4261" x2="115.2425" y2="50.4261" gradientTransform="matrix(1 0 0 -1 0 136.5011)">
					<stop  offset="0" style="stop-color:#2CD3C0"/>
					<stop  offset="1" style="stop-color:#2DD7A2"/>
				</linearGradient>
				<path class="st10" d="M114.6,76.1c0.8,0.5,0.8,1.3,0,1.7L83.1,96.1c-0.8,0.5-2.2,0.5-3,0s-0.8-1.3,0-1.7l31.5-18.3
					C112.4,75.6,113.8,75.6,114.6,76.1z"/>
			</g>
			<g>
				
					<linearGradient id="SVGID_5_" gradientUnits="userSpaceOnUse" x1="87.7" y1="47.7761" x2="130.7" y2="47.7761" gradientTransform="matrix(1 0 0 -1 0 136.5011)">
					<stop  offset="0" style="stop-color:#2CD3C0"/>
					<stop  offset="1" style="stop-color:#2DD7A2"/>
				</linearGradient>
				<path class="st11" d="M130.1,76.6c0.8,0.5,0.8,1.3,0,1.7l-38.8,22.6c-0.8,0.5-2.2,0.5-3,0s-0.8-1.3,0-1.7l38.8-22.6
					C127.9,76.1,129.2,76.1,130.1,76.6z"/>
			</g>
		</g>
		<g>
			<path class="st9" d="M101.3,74.4c0.8,0.5,0.8,1.3,0,1.7L74.9,91.4c-0.8,0.5-2.2,0.5-3,0s-0.8-1.3,0-1.7l26.4-15.3
				C99.1,73.9,100.4,73.9,101.3,74.4z"/>
		</g>
		<g>
			<path class="st2" d="M86.9,63.8c0.8,0.5,0.8,1.3,0,1.7L58.6,82c-0.8,0.5-2.2,0.5-3,0s-0.8-1.3,0-1.7L84,63.8
				C84.7,63.3,86.1,63.3,86.9,63.8z"/>
		</g>
		<g>
			<path class="st2" d="M66.8,66c0.8,0.5,0.8,1.3,0,1.7l-16.4,9.5c-0.8,0.5-2.2,0.5-3,0s-0.8-1.3,0-1.7L63.8,66
				C64.6,65.5,66,65.5,66.8,66z"/>
		</g>
	</g>
	<g>
		<g>
			<g>
				<polygon class="st12" points="95,56.6 93,57.7 92.8,57.6 94.8,56.4 				"/>
			</g>
			<g>
				<path class="st12" d="M98.5,59c-0.1-0.1-0.1-0.1,0-0.2c0.1-0.1,0.2-0.1,0.3,0c0.1,0.1,0.1,0.1,0,0.2C98.7,59,98.6,59.1,98.5,59z
					"/>
			</g>
			<g>
				<polygon class="st12" points="96.7,59.9 98.1,59.1 98.4,59.2 97,60 				"/>
			</g>
			<g>
				<path class="st12" d="M99.2,59.7c0.1,0.1,0.2,0.2,0.3,0.2L99.2,60c0,0-0.1-0.1-0.2-0.2c-0.1-0.1-0.3-0.1-0.4,0s-0.1,0.1,0,0.3
					c0.2,0.2,0.2,0.3,0,0.4c-0.2,0.1-0.6,0.1-0.9-0.1c-0.1-0.1-0.2-0.2-0.3-0.3l0.3-0.1c0,0.1,0.1,0.2,0.2,0.2
					c0.2,0.1,0.4,0.1,0.5,0s0.1-0.1,0-0.3c-0.2-0.2-0.1-0.3,0-0.4C98.6,59.5,98.9,59.5,99.2,59.7z"/>
			</g>
			<g>
				<polygon class="st12" points="97.6,58.1 95.9,59.1 96.7,59.6 96.5,59.7 95.4,59.1 97.3,58 				"/>
			</g>
			<g>
				<path class="st12" d="M95.9,57.8l-1.3,0.4c-0.6,0.2-1,0.2-1.3,0.2c-0.2,0-0.4-0.1-0.5-0.1l0.1-0.2c0.1,0,0.2,0,0.3,0.1
					s0.3,0,0.5,0h0.1h0.1l0.8-1l0.3,0.2L94.5,58c-0.1,0.1-0.1,0.2-0.2,0.2l0,0c0.1,0,0.2-0.1,0.4-0.1L95.9,57.8L95.9,57.8z"/>
			</g>
			<g>
				<path class="st12" d="M93.5,55.6l-0.8,0.5l0,0c0.1,0,0.2,0,0.4,0c0.1,0,0.2,0.1,0.3,0.1c0.2,0.1,0.4,0.3-0.1,0.6l-0.8,0.5
					l-0.2-0.1l0.8-0.5c0.2-0.1,0.3-0.3,0.1-0.4c-0.2-0.1-0.4-0.1-0.6,0l-0.1,0.1l-0.8,0.5l-0.2-0.1L93.5,55.6L93.5,55.6z"/>
			</g>
			<g>
				<path class="st12" d="M92.3,55.3l-0.4,0.2l0.4,0.2l-0.2,0.1l-0.4-0.2L91,56c-0.2,0.1-0.2,0.2-0.1,0.3c0.1,0,0.1,0.1,0.2,0.1
					l-0.2,0.1c-0.1,0-0.2-0.1-0.3-0.1c-0.1-0.1-0.2-0.1-0.2-0.2c0-0.1,0.1-0.2,0.3-0.3l0.7-0.4l-0.2-0.1l0.2-0.1l0.2,0.1l0.3-0.2
					L92.3,55.3z"/>
			</g>
			<g>
				<path class="st12" d="M90.8,54.8c0.2,0.1,0.4,0.3-0.1,0.6l-0.8,0.5l-0.2-0.1l0.8-0.5c0.2-0.1,0.3-0.3,0.1-0.4
					c-0.2-0.1-0.4-0.1-0.6,0L89.9,55L89,55.4l-0.2-0.1l1-0.6c0.1-0.1,0.3-0.2,0.4-0.2l0.2,0.1l-0.2,0.1l0,0
					C90.3,54.7,90.6,54.7,90.8,54.8z"/>
			</g>
			<g>
				<path class="st12" d="M89.1,53.8c0.4,0.2,0.4,0.5,0,0.8c-0.5,0.3-1.1,0.2-1.4,0c-0.4-0.2-0.4-0.5,0-0.8
					C88.2,53.6,88.8,53.6,89.1,53.8z M87.9,54.6c0.2,0.1,0.6,0.1,1-0.1c0.2-0.1,0.4-0.4,0.1-0.5c-0.3-0.2-0.7-0.1-0.9,0.1
					C87.7,54.2,87.6,54.4,87.9,54.6"/>
			</g>
			<g>
				<path class="st12" d="M88.5,52.9l-1.8,1.2L86.5,54l0.8-0.5c0.3-0.2,0.6-0.4,0.8-0.5l0,0c-0.3,0.1-0.6,0.2-1,0.3l-1.3,0.3
					l-0.2-0.1l0.6-0.7c0.2-0.2,0.3-0.4,0.5-0.6l0,0c-0.2,0.1-0.6,0.3-0.9,0.5l-0.9,0.4L84.8,53l2-1l0.3,0.2l-0.6,0.7
					c-0.2,0.2-0.3,0.3-0.4,0.5l0,0c0.2-0.1,0.5-0.2,0.8-0.3l1.3-0.3L88.5,52.9z"/>
			</g>
			<g>
				<path class="st12" d="M104.3,63.4L104.3,63.4l-1.1-0.5c-0.3,0.2-0.3,0.4,0,0.5c0.2,0.1,0.3,0.1,0.5,0.2l-0.1,0.1
					c-0.1,0-0.3-0.1-0.5-0.2c-0.4-0.2-0.4-0.6,0-0.8s1-0.3,1.4-0.1C104.8,62.9,104.6,63.2,104.3,63.4z M104.1,63.2
					c0.2-0.1,0.3-0.3,0.1-0.4c-0.3-0.1-0.6-0.1-0.8,0L104.1,63.2"/>
			</g>
			<g>
				<path class="st12" d="M102.9,61.8c0.2,0.1,0.4,0.3-0.1,0.6l-0.8,0.5l-0.2-0.1l0.8-0.5c0.2-0.1,0.3-0.3,0.1-0.4
					c-0.2-0.1-0.4-0.1-0.6,0L102,62l-0.8,0.5l-0.2-0.1l1-0.6c0.1-0.1,0.3-0.2,0.4-0.2l0.2,0.1l-0.2,0.1l0,0
					C102.4,61.7,102.7,61.7,102.9,61.8z"/>
			</g>
			<g>
				<path class="st12" d="M101.3,61.6L101.3,61.6l-1.1-0.5c-0.3,0.2-0.3,0.4,0,0.5c0.2,0.1,0.3,0.1,0.4,0.2l-0.1,0.1
					c-0.1,0-0.3-0.1-0.5-0.2c-0.4-0.2-0.4-0.6,0-0.8s1-0.3,1.4-0.1C101.8,61.2,101.6,61.5,101.3,61.6z M100.4,61l0.7,0.4
					c0.2-0.1,0.3-0.3,0.1-0.4C100.9,60.9,100.6,60.9,100.4,61"/>
			</g>
			<g>
				<path class="st12" d="M100.6,60l-0.4,0.2l0.4,0.2l-0.2,0.1l-0.4-0.2l-0.7,0.4c-0.2,0.1-0.2,0.2-0.1,0.3c0.1,0,0.1,0.1,0.2,0.1
					l-0.2,0.1c-0.1,0-0.2-0.1-0.3-0.1c-0.1-0.1-0.2-0.1-0.2-0.2c0-0.1,0.1-0.2,0.3-0.3l0.7-0.4l-0.2-0.1l0.2-0.1l0.2,0.1l0.3-0.2
					L100.6,60z"/>
			</g>
			<g>
				<path class="st12" d="M105.9,63.5L105.9,63.5l-0.2,0.2l-0.1-0.1c-0.2-0.1-0.4-0.1-0.7,0l-0.1,0.1l-0.7,0.4l-0.2-0.1l0.9-0.5
					c0.2-0.1,0.3-0.2,0.4-0.3l0.2,0.1l-0.3,0.2l0,0C105.4,63.4,105.7,63.4,105.9,63.5z"/>
			</g>
			<g>
				<path class="st4" d="M87.8,59.6l0.3,0.1l-0.2,0.1l-0.3-0.1L87.1,60l-0.2-0.1l0.5-0.3L86.5,59l0.2-0.1l2-0.2l0.3,0.2L87.8,59.6z
					 M88.2,59.1c0.1-0.1,0.2-0.1,0.3-0.2l0,0c-0.2,0-0.3,0.1-0.4,0.1L87,59.1l0,0l0.6,0.3L88.2,59.1"/>
			</g>
			<g>
				<path class="st4" d="M89.4,59.9c0.3,0.2,0.3,0.5,0,0.7s-0.9,0.2-1.3,0s-0.4-0.6,0.1-0.8c0.4-0.2,0.8-0.3,1.1-0.3
					c0.3,0,0.6,0.1,0.9,0.2c0.1,0,0.1,0.1,0.2,0.1l-0.2,0.1c-0.1,0-0.1-0.1-0.2-0.1c-0.5-0.2-0.9-0.1-1.3,0l0,0
					C89,59.8,89.2,59.8,89.4,59.9z M88.4,60.5c0.2,0.1,0.5,0.1,0.8,0c0.3-0.2,0.3-0.3,0-0.5c-0.1-0.1-0.4-0.1-0.6-0.1h-0.1
					C88.2,60.1,88.1,60.3,88.4,60.5"/>
			</g>
			<g class="st5">
				<g>
					<path class="st4" d="M84.6,58.1c0.1,0.1,0.1,0.1,0,0.2c-0.1,0.1-0.2,0.1-0.3,0c-0.1-0.1-0.1-0.1,0-0.2
						C84.3,58.1,84.5,58.1,84.6,58.1z"/>
				</g>
				<g>
					<path class="st4" d="M87.1,57.8c0.4,0.2,0.3,0.5,0,0.6c-0.3,0.2-0.9,0.2-1.6,0.2h-0.3l0,0l0.8,0.5l-0.2,0.1l-1.2-0.7l0.2-0.1
						h0.4c0.9,0,1.4,0,1.6-0.2c0.2-0.1,0.3-0.3,0-0.4c-0.2-0.1-0.4-0.1-0.5-0.1l0.1-0.1C86.6,57.6,86.9,57.7,87.1,57.8z"/>
				</g>
			</g>
			<g>
				<path class="st4" d="M85.1,56.6c0.4,0.2,0.3,0.5-0.2,0.8c-0.4,0.2-0.8,0.3-1.2,0.3c-0.3,0-0.6-0.1-0.8-0.2
					c-0.1,0-0.2-0.1-0.2-0.1l0.2-0.1l0,0c0,0,0.1,0.1,0.2,0.1c0.2,0.1,0.4,0.1,0.6,0.1s0.5,0,0.7-0.1l0,0c-0.2,0-0.4,0-0.6-0.1
					c-0.3-0.2-0.3-0.5,0-0.6C84.2,56.5,84.7,56.4,85.1,56.6z M84.6,57.3L84.6,57.3c0.4-0.2,0.5-0.4,0.3-0.5c-0.2-0.1-0.6-0.1-0.8,0
					c-0.2,0.1-0.3,0.3,0,0.4C84.2,57.3,84.4,57.3,84.6,57.3"/>
			</g>
			<g>
				<path class="st4" d="M83.6,55.8c0.4,0.2,0.3,0.4,0.1,0.6c-0.2,0.1-0.5,0.1-0.8,0.1l0,0c0.2,0.2,0.2,0.4-0.1,0.5
					c-0.3,0.2-0.8,0.2-1.2-0.1c-0.2-0.1-0.3-0.3-0.4-0.3l0.3-0.1c0,0.1,0.1,0.2,0.3,0.3c0.3,0.2,0.6,0.1,0.8,0
					c0.3-0.2,0.1-0.4-0.1-0.5l-0.1-0.1l0.2-0.1l0.1,0.1c0.2,0.1,0.5,0.2,0.7,0.1c0.1-0.1,0.2-0.2,0-0.4c-0.1-0.1-0.4-0.1-0.5-0.1
					l0.1-0.1C83.1,55.6,83.4,55.6,83.6,55.8z"/>
			</g>
			<g>
				<polygon class="st4" points="82.3,55.1 80.5,56.1 80.2,56 81.8,55.1 81.8,55.1 81.3,55 81.5,54.8 82.1,54.9 				"/>
			</g>
		</g>
	</g>
</g>
<g>
	<g>
		<path class="st13" d="M114.2,116.7l29.8,18.2c2.3,1.4,5.1,1.4,7.3-0.1l27-17.2c2.2-1.4,5.1-1.5,7.3-0.1l11.4,6.9
			c2.2,1.3,5,1.3,7.2,0l33.3-20.5"/>
	</g>
	<g>
		<g>
			<path class="st4" d="M117.3,115.6c1.3,0.8,1.3,2,0,2.7c-1.3,0.8-3.4,0.8-4.7,0c-1.3-0.8-1.3-2,0-2.7
				C113.8,114.8,116,114.8,117.3,115.6z"/>
		</g>
	</g>
	<g>
		<g>
			<path class="st4" d="M218.6,115.5c0.8,0.5,0.8,1.3,0,1.7c-0.8,0.5-2.2,0.5-3,0s-0.8-1.3,0-1.7
				C216.4,115.1,217.7,115.1,218.6,115.5z"/>
		</g>
	</g>
</g>
</svg>
