<?xml version="1.0" encoding="utf-8"?>
<!-- Generator: Adobe Illustrator 24.1.2, SVG Export Plug-In . SVG Version: 6.00 Build 0)  -->
<svg version="1.1" id="Camada_1" xmlns="http://www.w3.org/2000/svg" xmlns:xlink="http://www.w3.org/1999/xlink" x="0px" y="0px"
	 viewBox="0 0 42.6 48" style="enable-background:new 0 0 42.6 48;" xml:space="preserve">
<style type="text/css">
	.st0{enable-background:new    ;}
	.st1{fill:#36B87B;}
	.st2{fill:#2D8566;}
	.st3{fill:url(#SVGID_1_);}
	.st4{fill:url(#SVGID_2_);}
	.st5{fill:url(#SVGID_3_);}
	.st6{fill:url(#SVGID_4_);}
</style>
<g>
	<g>
		<g class="st0">
			<g>
				<polygon class="st1" points="42.6,12.3 42.5,35.7 21.3,48 21.4,24.6 				"/>
			</g>
			<g>
				<polygon class="st2" points="21.4,24.6 21.3,48 0,35.7 0.1,12.3 				"/>
			</g>
			<g>
				<linearGradient id="SVGID_1_" gradientUnits="userSpaceOnUse" x1="23.2798" y1="34.1572" x2="19.7503" y2="-5.3722">
					<stop  offset="0" style="stop-color:#2CD3C0"/>
					<stop  offset="1" style="stop-color:#2DD7A2"/>
				</linearGradient>
				<polygon class="st3" points="42.6,12.3 21.4,24.6 0.1,12.3 21.3,0 				"/>
			</g>
		</g>
	</g>
	<g>
		<g>
			<linearGradient id="SVGID_2_" gradientUnits="userSpaceOnUse" x1="5.6606" y1="27.9744" x2="7.2038" y2="27.9744">
				<stop  offset="0" style="stop-color:#2CD3C0"/>
				<stop  offset="1" style="stop-color:#2DD7A2"/>
			</linearGradient>
			<path class="st4" d="M6.4,24.9c0.4,0.2,0.8,0.8,0.8,1.3l0,4.5c0,0.5-0.3,0.7-0.8,0.4c-0.4-0.2-0.8-0.8-0.8-1.3l0-4.5
				C5.7,24.8,6,24.6,6.4,24.9z"/>
		</g>
		<g>
			<linearGradient id="SVGID_3_" gradientUnits="userSpaceOnUse" x1="9.2641" y1="30.057" x2="10.8074" y2="30.057">
				<stop  offset="0" style="stop-color:#2CD3C0"/>
				<stop  offset="1" style="stop-color:#2DD7A2"/>
			</linearGradient>
			<path class="st5" d="M10,26.9c0.4,0.2,0.8,0.8,0.8,1.3l0,4.5c0,0.5-0.3,0.7-0.8,0.4c-0.4-0.2-0.8-0.8-0.8-1.3l0-4.5
				C9.3,26.9,9.6,26.7,10,26.9z"/>
		</g>
		<g>
			<linearGradient id="SVGID_4_" gradientUnits="userSpaceOnUse" x1="12.8677" y1="32.1378" x2="14.4155" y2="32.1378">
				<stop  offset="0" style="stop-color:#2CD3C0"/>
				<stop  offset="1" style="stop-color:#2DD7A2"/>
			</linearGradient>
			<path class="st6" d="M13.7,29c0.4,0.2,0.8,0.8,0.8,1.3l0,4.5c0,0.5-0.3,0.7-0.8,0.4c-0.4-0.2-0.8-0.8-0.8-1.3l0-4.5
				C12.9,29,13.2,28.8,13.7,29z"/>
		</g>
	</g>
</g>
<g>
</g>
<g>
</g>
<g>
</g>
<g>
</g>
<g>
</g>
<g>
</g>
<g>
</g>
<g>
</g>
<g>
</g>
<g>
</g>
<g>
</g>
</svg>
