<?xml version="1.0" encoding="utf-8"?>
<!-- Generator: Adobe Illustrator 24.1.2, SVG Export Plug-In . SVG Version: 6.00 Build 0)  -->
<svg version="1.1" id="Camada_1" xmlns="http://www.w3.org/2000/svg" xmlns:xlink="http://www.w3.org/1999/xlink" x="0px" y="0px"
	 viewBox="0 0 37 33.2" style="enable-background:new 0 0 37 33.2;" xml:space="preserve">
<style type="text/css">
	.st0{fill:url(#SVGID_1_);}
	.st1{fill:#2D8566;}
</style>
<g>
	<linearGradient id="SVGID_1_" gradientUnits="userSpaceOnUse" x1="1.4972" y1="16.4297" x2="36.9915" y2="16.4297">
		<stop  offset="0" style="stop-color:#2CD3C0"/>
		<stop  offset="1" style="stop-color:#2DD7A2"/>
	</linearGradient>
	<path class="st0" d="M32.6,16.7c-0.4-3-2.5-6.4-5-7.9c-1-0.6-1.9-0.8-2.7-0.7c-1.2-3.1-3.4-5.8-5.8-7.2c-1.9-1.1-3.6-1.2-4.8-0.5
		L6.4,5c0.9-0.5,2-0.6,3.3-0.2C9.6,4.9,9.5,4.9,9.4,5L1.5,9.5c0.8-0.4,1.7-0.5,2.8-0.1l6.9-4c2.4,1.4,4.6,4.1,5.8,7.2
		c0.8-0.1,1.7,0.1,2.7,0.7c2.6,1.5,4.7,4.9,5,7.9c2.4,1.9,4.4,5.4,4.4,8.3c0,1.6-0.6,2.7-1.5,3.2l7.9-4.6c0.9-0.5,1.5-1.7,1.5-3.2
		C37,22.1,35.1,18.6,32.6,16.7z"/>
	<g>
		<path class="st1" d="M11.2,5.5c2.4,1.4,4.6,4.1,5.8,7.2c0.8-0.1,1.7,0.1,2.7,0.7c2.6,1.5,4.7,4.9,5,7.9c2.4,1.9,4.4,5.4,4.4,8.3
			c0,3.2-2.4,4.5-5.2,2.9L5.2,21.7C2.3,20,0,16,0,12.8c0-2.9,1.9-4.2,4.3-3.3C4.4,5.1,7.4,3.3,11.2,5.5z"/>
	</g>
</g>
<g>
</g>
<g>
</g>
<g>
</g>
<g>
</g>
<g>
</g>
<g>
</g>
<g>
</g>
<g>
</g>
<g>
</g>
<g>
</g>
<g>
</g>
</svg>
