<?xml version="1.0" encoding="utf-8"?>
<!-- Generator: Adobe Illustrator 24.1.2, SVG Export Plug-In . SVG Version: 6.00 Build 0)  -->
<svg version="1.1" id="Camada_1" xmlns="http://www.w3.org/2000/svg" xmlns:xlink="http://www.w3.org/1999/xlink" x="0px" y="0px"
	 viewBox="0 0 22.9 20.5" style="enable-background:new 0 0 22.9 20.5;" xml:space="preserve">
<style type="text/css">
	.st0{fill:url(#SVGID_1_);}
	.st1{fill:#2D8566;}
</style>
<g>
	
		<linearGradient id="SVGID_1_" gradientUnits="userSpaceOnUse" x1="33.7657" y1="10.1594" x2="55.7137" y2="10.1594" gradientTransform="matrix(-1 0 0 1 55.7137 0)">
		<stop  offset="0" style="stop-color:#2CD3C0"/>
		<stop  offset="1" style="stop-color:#2DD7A2"/>
	</linearGradient>
	<path class="st0" d="M2.7,10.3c0.2-1.9,1.5-4,3.1-4.9C6.4,5.1,7,5,7.5,5c0.7-1.9,2.1-3.6,3.6-4.4c1.2-0.7,2.2-0.7,3-0.3l4.9,2.8
		c-0.6-0.3-1.3-0.4-2.1-0.1C17,3,17,3,17.1,3.1l4.9,2.8c-0.5-0.3-1.1-0.3-1.8,0L16,3.4c-1.5,0.9-2.9,2.6-3.6,4.4
		c-0.5-0.1-1.1,0.1-1.7,0.4c-1.6,0.9-2.9,3-3.1,4.9c-1.5,1.1-2.7,3.3-2.7,5.2c0,1,0.4,1.7,0.9,2l-4.9-2.8c-0.6-0.3-0.9-1-0.9-2
		C0,13.7,1.2,11.5,2.7,10.3z"/>
	<g>
		<path class="st1" d="M16,3.4c-1.5,0.9-2.9,2.6-3.6,4.4c-0.5-0.1-1.1,0.1-1.7,0.4c-1.6,0.9-2.9,3-3.1,4.9c-1.5,1.1-2.7,3.3-2.7,5.2
			c0,2,1.5,2.8,3.2,1.8l11.6-6.7c1.7-1,3.2-3.5,3.2-5.5c0-1.8-1.2-2.6-2.7-2C20.2,3.1,18.3,2.1,16,3.4z"/>
	</g>
</g>
<g>
</g>
<g>
</g>
<g>
</g>
<g>
</g>
<g>
</g>
<g>
</g>
<g>
</g>
<g>
</g>
<g>
</g>
<g>
</g>
<g>
</g>
</svg>
