<?xml version="1.0" encoding="utf-8"?>
<!-- Generator: Adobe Illustrator 24.1.2, SVG Export Plug-In . SVG Version: 6.00 Build 0)  -->
<svg version="1.1" id="Camada_1" xmlns="http://www.w3.org/2000/svg" xmlns:xlink="http://www.w3.org/1999/xlink" x="0px" y="0px"
	 viewBox="0 0 110.1 63.7" style="enable-background:new 0 0 110.1 63.7;" xml:space="preserve">
<style type="text/css">
	.st0{fill:url(#SVGID_1_);}
	.st1{fill:#EAEEEE;}
	.st2{enable-background:new    ;}
	.st3{fill:#2D8566;}
</style>
<g>
	<g>
		<linearGradient id="SVGID_1_" gradientUnits="userSpaceOnUse" x1="0" y1="31.8544" x2="110.1177" y2="31.8544">
			<stop  offset="0" style="stop-color:#2CD3C0"/>
			<stop  offset="1" style="stop-color:#2DD7A2"/>
		</linearGradient>
		<path class="st0" d="M108,40.4c2.8,1.6,2.9,4.3,0,6L80.3,62.5c-2.8,1.6-7.4,1.6-10.3,0L2.1,23.3c-2.8-1.6-2.9-4.3,0-6L29.8,1.2
			c2.8-1.6,7.4-1.6,10.3,0L108,40.4z"/>
	</g>
	<g>
		<g>
			<g>
				<path class="st1" d="M63.3,30.9c0.6,0.3,0.6,0.8-0.1,1.2c-0.8,0.4-1.6,0.3-2.1,0c-0.6-0.3-0.6-0.8,0.1-1.2
					C61.9,30.5,62.7,30.5,63.3,30.9z M61.4,31.9c0.4,0.2,1,0.2,1.4-0.1c0.3-0.2,0.6-0.6,0.2-0.8c-0.4-0.3-1-0.1-1.4,0.1
					C61.1,31.4,61.1,31.7,61.4,31.9"/>
			</g>
			<g>
				<path class="st1" d="M63.2,29.9l-2.6,0.4L59.4,31L59,30.8l1.2-0.7l0.7-1.5l0.4,0.2L61,29.6c-0.1,0.2-0.2,0.3-0.3,0.5l0,0
					c0.3-0.1,0.5-0.1,0.9-0.2l1.2-0.2L63.2,29.9z"/>
			</g>
			<g>
				<path class="st1" d="M68,33.6L68,33.6l-0.3,0.3l-0.1-0.1c-0.3-0.2-0.6-0.1-1,0l-0.2,0.1l-1.1,0.6L65,34.3l1.4-0.8
					c0.2-0.1,0.4-0.3,0.6-0.4l0.3,0.2L67,33.5l0,0C67.4,33.4,67.8,33.4,68,33.6z"/>
			</g>
			<g>
				<path class="st1" d="M66.4,32.7l-1.5,0.9c-0.2,0.1-0.4,0.2-0.5,0.3l-0.3-0.2l0.3-0.2l0,0c-0.3,0-0.7,0-1.1-0.2
					c-0.3-0.2-0.5-0.5,0.2-0.9l1.2-0.7l0.4,0.2l-1.1,0.7c-0.4,0.2-0.5,0.4-0.2,0.6c0.3,0.1,0.6,0.1,0.8,0.1c0.1,0,0.2-0.1,0.2-0.1
					l1.3-0.7L66.4,32.7z"/>
			</g>
			<g>
				<path class="st1" d="M75.6,39.1c-0.1,0-0.1,0.1-0.2,0.1L74,38.3c-0.5,0.3-0.4,0.6,0,0.8c0.3,0.2,0.5,0.2,0.7,0.3l-0.2,0.2
					c-0.2,0-0.5-0.1-0.8-0.3c-0.6-0.4-0.6-0.8,0-1.2c0.6-0.4,1.5-0.4,2.1-0.1C76.4,38.4,76,38.9,75.6,39.1z M75.3,38.8
					c0.2-0.1,0.5-0.4,0.1-0.6c-0.4-0.2-0.9-0.1-1.2,0L75.3,38.8"/>
			</g>
			<g class="st2">
				<g>
					<path class="st1" d="M72,35.5c-0.1-0.1-0.1-0.2,0-0.3c0.1-0.1,0.3-0.1,0.5,0c0.1,0.1,0.1,0.2,0,0.3
						C72.3,35.6,72.1,35.6,72,35.5z"/>
				</g>
				<g>
					<path class="st1" d="M72,35l-3.9,1.1l-0.4-0.2l1.9-2.2l0.4,0.2l-1,1.1c-0.3,0.3-0.5,0.6-0.8,0.8l0,0c0.4-0.1,0.9-0.3,1.4-0.4
						l1.9-0.5L72,35z"/>
				</g>
				<g>
					<path class="st1" d="M72.7,38.1c-0.2,0.1-0.4,0.2-0.5,0.3l-0.3-0.2l0.3-0.2l0,0c-0.3,0.1-0.8,0-1.1-0.2
						c-0.5-0.3-0.5-0.7,0.2-1.1c0.7-0.4,1.5-0.4,2-0.1c0.3,0.2,0.4,0.4,0.3,0.5l0,0l1.2-0.7l0.4,0.2L72.7,38.1z M72.7,37.7l0.4-0.2
						l0.1-0.1c0.2-0.2,0.2-0.4-0.1-0.6c-0.4-0.2-1-0.2-1.4,0.1c-0.4,0.2-0.6,0.6-0.1,0.8c0.2,0.1,0.6,0.2,1,0.1L72.7,37.7"/>
				</g>
			</g>
			<g>
				<polygon class="st1" points="69.4,36.8 71.5,35.6 71.9,35.9 69.8,37 				"/>
			</g>
			<g>
				<path class="st1" d="M77.9,39.3c0.6,0.3,0.6,0.8-0.1,1.2c-0.8,0.4-1.6,0.3-2.1,0c-0.6-0.3-0.6-0.8,0.1-1.2
					C76.5,38.9,77.3,39,77.9,39.3z M76,40.4c0.4,0.2,1,0.2,1.4-0.1c0.3-0.2,0.6-0.6,0.2-0.8c-0.4-0.3-1-0.1-1.4,0.1
					C75.7,39.8,75.7,40.2,76,40.4"/>
			</g>
			<g>
				<path class="st1" d="M86.2,45.2c-0.1,0-0.1,0.1-0.2,0.1l-1.4-0.8c-0.5,0.3-0.4,0.6,0,0.8c0.3,0.2,0.5,0.2,0.7,0.3l-0.2,0.2
					c-0.2,0-0.5-0.1-0.8-0.3c-0.6-0.4-0.6-0.8,0-1.2c0.6-0.4,1.5-0.4,2.1-0.1C87,44.6,86.6,45,86.2,45.2z M84.9,44.3L86,45
					c0.2-0.1,0.5-0.4,0.1-0.7C85.7,44.1,85.2,44.2,84.9,44.3"/>
			</g>
			<g>
				<polygon class="st1" points="85.8,42.8 82.8,44.6 82.4,44.3 85.4,42.6 				"/>
			</g>
			<g>
				<polygon class="st1" points="80.1,43 82.1,41.8 82.5,42 80.4,43.2 				"/>
			</g>
			<g>
				<path class="st1" d="M82.6,41.7c-0.1-0.1-0.1-0.2,0-0.3c0.1-0.1,0.3-0.1,0.5,0c0.1,0.1,0.1,0.2,0,0.3
					C83,41.8,82.8,41.8,82.6,41.7z"/>
			</g>
			<g>
				<polygon class="st1" points="82.6,41.2 82.3,41.3 81.5,40.8 78.9,42.3 78.6,42.1 81.1,40.6 80.2,40.1 80.5,39.9 				"/>
			</g>
			<g>
				<path class="st1" d="M84.1,42.3l-0.6,0.3l0.5,0.3l-0.3,0.2l-0.5-0.3l-1.1,0.6c-0.3,0.1-0.3,0.3-0.1,0.4c0.1,0.1,0.2,0.1,0.2,0.1
					L82,44.1c-0.1,0-0.2-0.1-0.4-0.2c-0.2-0.1-0.3-0.2-0.2-0.3c0-0.1,0.1-0.3,0.4-0.4l1.1-0.6l-0.3-0.2l0.3-0.2l0.3,0.2l0.5-0.3
					L84.1,42.3z"/>
			</g>
			<g>
				<path class="st1" d="M57.4,36.2c0.1,0.1,0.1,0.2,0,0.3c-0.2,0.1-0.4,0.1-0.5,0c-0.1-0.1-0.1-0.2,0-0.3
					C57.1,36.1,57.3,36.1,57.4,36.2z"/>
			</g>
			<g>
				<path class="st1" d="M63.4,37c0.6,0.3,0.4,0.8-0.5,1.3c-0.9,0.5-1.8,0.6-2.4,0.3c-0.5-0.3-0.4-0.8,0.5-1.3
					C62,36.8,62.9,36.7,63.4,37z M60.8,38.5c0.4,0.2,1,0.1,1.7-0.3c0.7-0.4,1-0.8,0.6-1c-0.3-0.2-1-0.1-1.7,0.3
					C60.7,37.9,60.5,38.3,60.8,38.5"/>
			</g>
			<g>
				<path class="st1" d="M61.1,35.7c0.5,0.3,0.5,0.6,0.1,0.8c-0.3,0.2-0.7,0.2-1.2,0.1c0.3,0.2,0.3,0.5-0.1,0.8
					c-0.4,0.3-1.2,0.3-1.8-0.1c-0.3-0.2-0.5-0.4-0.5-0.5l0.4-0.1c0,0.1,0.2,0.3,0.4,0.5c0.5,0.3,0.9,0.2,1.2,0
					c0.4-0.2,0.2-0.5-0.2-0.7l-0.2-0.1l0.3-0.2l0.2,0.1c0.3,0.2,0.8,0.3,1.1,0.1c0.2-0.1,0.3-0.3-0.1-0.5c-0.2-0.1-0.5-0.2-0.7-0.2
					l0.2-0.2C60.5,35.4,60.8,35.5,61.1,35.7z"/>
			</g>
			<g>
				<polygon class="st1" points="58.4,34.2 55.6,35.8 55.3,35.6 57.7,34.2 57.7,34.2 56.9,34 57.2,33.8 58.1,34 				"/>
			</g>
			<g>
				<path class="st1" d="M56,32.7c0.6,0.3,0.4,0.8-0.5,1.3c-0.9,0.5-1.8,0.6-2.4,0.3c-0.5-0.3-0.4-0.8,0.5-1.3
					C54.5,32.5,55.5,32.4,56,32.7z M53.4,34.2c0.4,0.2,1,0.1,1.7-0.3c0.7-0.4,1-0.8,0.6-1c-0.3-0.2-1-0.1-1.7,0.3
					C53.3,33.6,53.1,34,53.4,34.2"/>
			</g>
			<g>
				<path class="st1" d="M51.6,35.9c0.4,0.2,0.5,0.4,0.6,0.5l-0.4,0.1c-0.1-0.1-0.2-0.3-0.5-0.4c-0.7-0.4-1.5-0.4-2.3,0
					c-0.7,0.4-0.7,0.9,0,1.3c0.2,0.1,0.5,0.2,0.7,0.3l-0.2,0.2c-0.2,0-0.5-0.2-0.9-0.4c-0.8-0.5-0.9-1.1,0-1.7
					C49.5,35.4,50.7,35.4,51.6,35.9z"/>
			</g>
			<g>
				<path class="st1" d="M63,43.4L63,43.4l-0.3,0.3l-0.1-0.1c-0.3-0.2-0.6-0.1-1,0l-0.2,0.1l-1.1,0.6L60,44.1l1.4-0.8
					c0.2-0.1,0.4-0.3,0.6-0.4l0.3,0.2L62,43.4l0,0C62.4,43.3,62.8,43.3,63,43.4z"/>
			</g>
			<g>
				<path class="st1" d="M60.7,42.1c0.6,0.3,0.6,0.8-0.1,1.2c-0.8,0.4-1.6,0.3-2.1,0c-0.6-0.3-0.6-0.8,0.1-1.2
					C59.2,41.7,60.1,41.8,60.7,42.1z M58.8,43.2c0.4,0.2,1,0.2,1.4-0.1c0.3-0.2,0.6-0.6,0.2-0.8c-0.4-0.3-1-0.1-1.4,0.1
					C58.5,42.6,58.4,42.9,58.8,43.2"/>
			</g>
			<g>
				<path class="st1" d="M58.8,41.1l0.3,0.2c-0.2,0.1-0.3,0.2-0.6,0.3l-1.2,0.7c-0.5,0.3-0.9,0.4-1.2,0.4c-0.4,0-0.7-0.1-1-0.3
					c-0.2-0.1-0.5-0.3-0.5-0.5l0.4-0.1c0.1,0.1,0.2,0.3,0.4,0.4c0.4,0.2,0.9,0.3,1.4,0l0.2-0.1l0,0c-0.3,0-0.7,0-1-0.2
					c-0.5-0.3-0.4-0.8,0.1-1.1c0.7-0.4,1.5-0.4,2-0.1c0.4,0.2,0.4,0.4,0.3,0.6l0,0L58.8,41.1z M57.6,41.7l0.4-0.2l0.2-0.1
					c0.1-0.2,0.1-0.4-0.1-0.5c-0.4-0.2-0.9-0.2-1.4,0.1c-0.4,0.2-0.5,0.5-0.1,0.8c0.2,0.1,0.6,0.2,0.9,0.1L57.6,41.7"/>
			</g>
			<g>
				<path class="st1" d="M56,40.5c-0.1,0-0.1,0.1-0.2,0.1l-1.4-0.8c-0.5,0.3-0.4,0.6,0,0.8c0.3,0.2,0.5,0.2,0.7,0.3L54.8,41
					c-0.2,0-0.5-0.1-0.8-0.3c-0.6-0.4-0.6-0.8,0-1.2c0.6-0.4,1.5-0.4,2.1-0.1C56.8,39.8,56.4,40.3,56,40.5z M54.6,39.6l1.1,0.6
					c0.2-0.1,0.5-0.4,0.1-0.6C55.4,39.4,54.9,39.5,54.6,39.6"/>
			</g>
			<g>
				<path class="st1" d="M54.9,38.1l-0.6,0.3l0.5,0.3L54.6,39L54,38.6l-1.1,0.6c-0.3,0.1-0.3,0.3-0.1,0.4c0.1,0.1,0.2,0.1,0.2,0.1
					L52.8,40c-0.1,0-0.2-0.1-0.4-0.2c-0.2-0.1-0.3-0.2-0.2-0.3c0-0.1,0.1-0.3,0.4-0.4l1.1-0.6l-0.3-0.2l0.3-0.2l0.3,0.2l0.5-0.3
					L54.9,38.1z"/>
			</g>
			<g>
				<path class="st1" d="M51.7,38.8c-0.2,0.1-0.3,0.2-0.5,0.3l-0.3-0.2l0.2-0.2l0,0c-0.3,0-0.6,0-0.9-0.2c-0.4-0.2-0.3-0.5,0-0.7
					c0.5-0.3,1.2-0.2,2,0.3c0,0,0,0,0,0l0,0c0.2-0.1,0.4-0.3,0-0.5c-0.2-0.1-0.4-0.2-0.7-0.2l0.2-0.2c0.3,0,0.6,0.1,0.9,0.3
					c0.6,0.4,0.3,0.7-0.1,0.9L51.7,38.8z M51.6,38.5l0.4-0.2c0,0,0,0,0,0C51.5,38,51,37.8,50.6,38c-0.2,0.1-0.2,0.3,0,0.4
					c0.3,0.2,0.6,0.2,0.8,0.1L51.6,38.5"/>
			</g>
			<g>
				<path class="st1" d="M65.2,44.8l-2,0.5c-1,0.3-1.5,0.4-2,0.3c-0.4,0-0.6-0.1-0.7-0.1l0.2-0.2c0.1,0,0.3,0.1,0.5,0.1
					c0.2,0,0.5,0,0.7-0.1l0.1,0l0.1-0.1l1.1-1.5l0.4,0.2l-0.8,1c-0.1,0.1-0.2,0.2-0.3,0.3c0.2,0,0.4-0.1,0.6-0.2l1.6-0.5L65.2,44.8z
					"/>
			</g>
		</g>
	</g>
	<g>
		<g>
			<path class="st1" d="M104.5,42.3c0.2,0.1,0.2,0.3,0,0.4c-0.2,0.1-0.5,0.1-0.6,0l-3.2-1.8c-0.2-0.1-0.2-0.3,0-0.4
				c0.2-0.1,0.5-0.1,0.6,0L104.5,42.3z"/>
		</g>
		<g>
			<path class="st1" d="M101.9,43.8c0.2,0.1,0.2,0.3,0,0.4c-0.2,0.1-0.5,0.1-0.6,0l-3.2-1.8c-0.2-0.1-0.2-0.3,0-0.4
				c0.2-0.1,0.5-0.1,0.6,0L101.9,43.8z"/>
		</g>
		<g>
			<path class="st1" d="M103.2,43.1c0.2,0.1,0.2,0.3,0,0.4c-0.2,0.1-0.5,0.1-0.6,0l-3.2-1.8c-0.2-0.1-0.2-0.3,0-0.4
				c0.2-0.1,0.5-0.1,0.6,0L103.2,43.1z"/>
		</g>
	</g>
	<g>
		<g>
			<polygon class="st1" points="77.4,56.8 73.8,58.9 73.2,57.7 71.2,57.4 74.8,55.3 			"/>
		</g>
		<g>
			<path class="st1" d="M70.5,52.6c0.4,0.2,0.4,0.5,0,0.7c-0.3,0.2-0.9,0.2-1.3,0c-0.2-0.1-0.3-0.2-0.3-0.4l-1.8-0.3
				c0,0-0.1,0.1-0.2,0.1c-0.1,0-0.1,0.1-0.2,0.1l0.5,1c0.2,0,0.5,0,0.7,0.2c0.4,0.2,0.4,0.5,0,0.7c-0.3,0.2-0.9,0.2-1.3,0
				c-0.4-0.2-0.4-0.5,0-0.7l0.2-0.1l-0.5-1.1c-0.2,0-0.5,0-0.6-0.1c-0.4-0.2-0.4-0.5,0-0.7c0.3-0.2,0.9-0.2,1.3,0
				c0.2,0.1,0.3,0.2,0.3,0.4l1.8,0.3l0.1-0.1C69.6,52.4,70.1,52.4,70.5,52.6z"/>
		</g>
		<g>
			<path class="st3" d="M63.9,49.1c0.3,0.2,0.5,0.4,0.5,0.7c0,0.3-0.2,0.5-0.6,0.7c-0.4,0.2-0.8,0.3-1.5,0.4c-0.6,0-1.3,0-2,0
				c-0.3,0-0.6,0-0.9,0c-0.1,0-0.2,0-0.2-0.1c-0.1,0-0.1-0.1-0.1-0.1c0-0.2,0-0.4-0.1-0.5c-0.1-0.5-0.1-0.9-0.1-1.2
				c0.1-0.4,0.3-0.6,0.6-0.8c0.3-0.2,0.8-0.3,1.2-0.3c0.5,0,0.9,0.1,1.2,0.3c0.2,0.1,0.4,0.3,0.4,0.5c0,0.1,0,0.2,0,0.3
				c0.2,0,0.4,0,0.6,0C63.3,48.8,63.6,48.9,63.9,49.1z"/>
		</g>
	</g>
</g>
<g>
</g>
<g>
</g>
<g>
</g>
<g>
</g>
<g>
</g>
<g>
</g>
<g>
</g>
<g>
</g>
<g>
</g>
<g>
</g>
<g>
</g>
</svg>
