<?xml version="1.0" encoding="utf-8"?>
<!-- Generator: Adobe Illustrator 24.1.2, SVG Export Plug-In . SVG Version: 6.00 Build 0)  -->
<svg version="1.1" id="Camada_1" xmlns="http://www.w3.org/2000/svg" xmlns:xlink="http://www.w3.org/1999/xlink" x="0px" y="0px"
	 viewBox="0 0 34 21.8" style="enable-background:new 0 0 34 21.8;" xml:space="preserve">
<style type="text/css">
	.st0{fill:url(#SVGID_1_);}
	.st1{fill:url(#SVGID_2_);stroke:#2DD7A2;stroke-width:0.1693;stroke-miterlimit:10;}
	.st2{fill:url(#SVGID_3_);}
</style>
<g>
	<g>
		<linearGradient id="SVGID_1_" gradientUnits="userSpaceOnUse" x1="17.0116" y1="-3.4862" x2="17.0116" y2="30.1389">
			<stop  offset="0" style="stop-color:#2D4159"/>
			<stop  offset="0.9958" style="stop-color:#121A24"/>
		</linearGradient>
		<path class="st0" d="M33.2,11l-14.3,8.3c-1,0.6-2.7,0.6-3.7,0L0.9,11c-0.5-0.3-0.8-0.7-0.8-1.1l0,2.1c0,0.4,0.3,0.8,0.8,1.1
			l14.3,8.3c1,0.6,2.7,0.6,3.7,0L33.2,13c0.5-0.3,0.8-0.7,0.8-1.1l0-2.1C34,10.3,33.7,10.7,33.2,11z"/>
		<linearGradient id="SVGID_2_" gradientUnits="userSpaceOnUse" x1="12.3264" y1="-2.3613" x2="25.6753" y2="32.4688">
			<stop  offset="0" style="stop-color:#1C2938"/>
			<stop  offset="0.9958" style="stop-color:#121A24"/>
		</linearGradient>
		<path class="st1" d="M33.2,8.8c1,0.6,1,1.6,0,2.2l-14.3,8.3c-1,0.6-2.7,0.6-3.7,0L0.9,11c-1-0.6-1-1.6,0-2.2l14.3-8.3
			c1-0.6,2.7-0.6,3.7,0L33.2,8.8z"/>
	</g>
	<g>
		<linearGradient id="SVGID_3_" gradientUnits="userSpaceOnUse" x1="14.7525" y1="17.8271" x2="18.238" y2="-1.0684">
			<stop  offset="0" style="stop-color:#2CD3C0"/>
			<stop  offset="1" style="stop-color:#2DD7A2"/>
		</linearGradient>
		<path class="st2" d="M21.3,7.7c0.9,0.5,0.9,1.4,0,1.9c-0.7,0.4-1.7,0.5-2.6,0.3c0.5,0.6,0.3,1.6-0.6,2.4c0.8-0.2,1.6-0.2,2.2-0.1
			c-0.3-0.3-0.2-0.7,0.3-1c0.6-0.4,1.6-0.4,2.3,0c0.6,0.4,0.6,0.9,0,1.3c-0.5,0.3-1.2,0.3-1.8,0.2c0.5,0.6,0,1.5-1.1,2.1
			c0,0-0.1,0-0.1,0.1l-3-1.7l-0.3-0.2l-4.3-2.5L12,10.3l-3-1.7c0,0,0.1,0,0.1-0.1c1.2-0.7,2.7-0.9,3.7-0.7c-0.3-0.3-0.2-0.7,0.3-1
			c0.6-0.4,1.6-0.4,2.3,0c0.6,0.4,0.6,0.9,0,1.3c-0.5,0.3-1.2,0.3-1.8,0.2c0.3,0.4,0.2,0.8-0.1,1.3c1.4-0.5,3-0.7,4.1-0.4
			c-0.4-0.5-0.2-1.1,0.5-1.5C18.9,7.2,20.4,7.2,21.3,7.7z"/>
	</g>
</g>
<g>
</g>
<g>
</g>
<g>
</g>
<g>
</g>
<g>
</g>
<g>
</g>
<g>
</g>
<g>
</g>
<g>
</g>
<g>
</g>
<g>
</g>
</svg>
