<?xml version="1.0" encoding="utf-8"?>
<!-- Generator: Adobe Illustrator 24.1.2, SVG Export Plug-In . SVG Version: 6.00 Build 0)  -->
<svg version="1.1" id="Camada_1" xmlns="http://www.w3.org/2000/svg" xmlns:xlink="http://www.w3.org/1999/xlink" x="0px" y="0px"
	 viewBox="0 0 52.1 33.3" style="enable-background:new 0 0 52.1 33.3;" xml:space="preserve">
<style type="text/css">
	.st0{fill:url(#SVGID_1_);}
	.st1{fill:url(#SVGID_2_);stroke:#2DD7A2;stroke-width:0.2591;stroke-miterlimit:10;}
	.st2{fill:#00A5FF;}
</style>
<g>
	<g>
		<linearGradient id="SVGID_1_" gradientUnits="userSpaceOnUse" x1="26.0277" y1="-5.3339" x2="26.0277" y2="46.1126">
			<stop  offset="0" style="stop-color:#2D4159"/>
			<stop  offset="0.9958" style="stop-color:#121A24"/>
		</linearGradient>
		<path class="st0" d="M50.8,16.8L29,29.5c-1.6,0.9-4.1,0.9-5.7,0l-22-12.7c-0.8-0.5-1.2-1.1-1.2-1.7l0,3.2c0,0.6,0.4,1.2,1.2,1.7
			l22,12.7c1.6,0.9,4.1,0.9,5.7,0L50.8,20c0.8-0.5,1.2-1,1.2-1.6l0-3.2C52,15.7,51.6,16.3,50.8,16.8z"/>
		<linearGradient id="SVGID_2_" gradientUnits="userSpaceOnUse" x1="18.8593" y1="-3.6128" x2="39.2833" y2="49.6773">
			<stop  offset="0" style="stop-color:#1C2938"/>
			<stop  offset="0.9958" style="stop-color:#121A24"/>
		</linearGradient>
		<path class="st1" d="M50.8,13.5c1.6,0.9,1.6,2.4,0,3.3L29,29.5c-1.6,0.9-4.1,0.9-5.7,0l-22-12.7c-1.6-0.9-1.6-2.4,0-3.3L23.1,0.8
			c1.6-0.9,4.1-0.9,5.7,0L50.8,13.5z"/>
	</g>
	<g>
		<path class="st2" d="M32.6,11.8c1.4,0.8,1.4,2.1,0,2.9c-1.1,0.6-2.7,0.8-4,0.4c0.8,1,0.4,2.4-0.9,3.7c1.2-0.3,2.5-0.4,3.4-0.1
			c-0.4-0.5-0.2-1.1,0.5-1.6c1-0.6,2.5-0.6,3.4,0c1,0.5,1,1.4,0,2c-0.7,0.4-1.8,0.5-2.7,0.3c0.7,0.9,0.1,2.2-1.7,3.3
			c0,0-0.1,0.1-0.1,0.1l-4.6-2.7l-0.5-0.3L18.8,16l-0.5-0.3L13.7,13c0,0,0.1-0.1,0.1-0.1c1.8-1,4.1-1.4,5.6-1
			c-0.4-0.5-0.2-1.1,0.5-1.6c0.9-0.6,2.5-0.6,3.4,0c1,0.6,1,1.4,0,2c-0.7,0.4-1.8,0.5-2.7,0.3c0.4,0.5,0.4,1.3-0.2,2
			c2.2-0.8,4.6-1,6.3-0.6c-0.6-0.8-0.4-1.7,0.7-2.3C28.9,11,31.2,11,32.6,11.8z"/>
	</g>
</g>
<g>
</g>
<g>
</g>
<g>
</g>
<g>
</g>
<g>
</g>
<g>
</g>
<g>
</g>
<g>
</g>
<g>
</g>
<g>
</g>
<g>
</g>
</svg>
