<?xml version="1.0" encoding="utf-8"?>
<!-- Generator: Adobe Illustrator 24.1.2, SVG Export Plug-In . SVG Version: 6.00 Build 0)  -->
<svg version="1.1" id="Camada_1" xmlns="http://www.w3.org/2000/svg" xmlns:xlink="http://www.w3.org/1999/xlink" x="0px" y="0px"
	 viewBox="0 0 56.5 32.7" style="enable-background:new 0 0 56.5 32.7;" xml:space="preserve">
<style type="text/css">
	.st0{fill:#EAEEEE;}
	.st1{fill:url(#SVGID_1_);}
	.st2{fill:url(#SVGID_2_);}
</style>
<g>
	<g>
		<path class="st0" d="M54.6,13.8c2.5,1.4,2.5,3.7,0,5.2L32.8,31.6c-2.5,1.4-6.5,1.4-8.9,0l-22-12.7c-2.5-1.4-2.5-3.7,0-5.2
			L23.7,1.1c2.5-1.4,6.5-1.4,8.9,0L54.6,13.8z"/>
	</g>
	<g>
		<linearGradient id="SVGID_1_" gradientUnits="userSpaceOnUse" x1="25.1429" y1="2.8177" x2="31.8488" y2="34.9353">
			<stop  offset="0" style="stop-color:#2B3F57"/>
			<stop  offset="0.9958" style="stop-color:#121A24"/>
		</linearGradient>
		<path class="st1" d="M38.3,9.6c5.8,3.4,5.8,8.8,0.1,12.1c-5.8,3.4-15.2,3.4-21,0c-5.8-3.4-5.8-8.8-0.1-12.1S32.5,6.2,38.3,9.6z"/>
	</g>
	<g>
		<linearGradient id="SVGID_2_" gradientUnits="userSpaceOnUse" x1="20.5962" y1="14.664" x2="32.9413" y2="14.664">
			<stop  offset="0" style="stop-color:#2CD3C0"/>
			<stop  offset="1" style="stop-color:#2DD7A2"/>
		</linearGradient>
		<path class="st2" d="M30,11.4c0.2,0.1,0.4,0.3,0.4,0.4l1.2,2.6l1.2,2.6c0.3,0.7-0.8,1.4-2.1,1.2l-4.5-0.7l-4.5-0.7
			c-0.3,0-0.6-0.1-0.8-0.3c-0.6-0.4-0.7-1,0-1.4l3.2-1.9l3.2-1.9C28.3,11,29.4,11,30,11.4z"/>
	</g>
</g>
<g>
</g>
<g>
</g>
<g>
</g>
<g>
</g>
<g>
</g>
<g>
</g>
<g>
</g>
<g>
</g>
<g>
</g>
<g>
</g>
<g>
</g>
</svg>
