<?xml version="1.0" encoding="utf-8"?>
<!-- Generator: Adobe Illustrator 24.1.2, SVG Export Plug-In . SVG Version: 6.00 Build 0)  -->
<svg version="1.1" id="Camada_1" xmlns="http://www.w3.org/2000/svg" xmlns:xlink="http://www.w3.org/1999/xlink" x="0px" y="0px"
	 viewBox="0 0 64.2 40.1" style="enable-background:new 0 0 64.2 40.1;" xml:space="preserve">
<style type="text/css">
	.st0{fill:#0070E0;}
	.st1{fill:#00A5FF;}
	.st2{fill:#FFFFFF;}
</style>
<g>
	<g>
		<path class="st0" d="M61.4,35.4c-3.9,2.2-10.1,2.2-14,0L2.9,9.8C1,8.7,0,7.2,0,5.7l0,3c0,1.5,1,3,2.9,4.1l44.4,25.6
			c3.9,2.2,10.2,2.2,14,0c1.9-1.1,2.9-2.6,2.9-4l0-3C64.2,32.9,63.3,34.3,61.4,35.4z"/>
		<g>
			<path class="st1" d="M61.3,27.3c3.9,2.2,3.9,5.9,0,8.1c-3.9,2.2-10.1,2.2-14,0L2.9,9.8c-3.9-2.2-3.9-5.9,0-8.1
				c3.9-2.2,10.1-2.2,14,0L61.3,27.3z"/>
		</g>
	</g>
	<g>
		<g>
			<g>
				<path class="st2" d="M26.6,13.4c0.4,0.2,0.6,0.4,0.6,0.6l-0.5,0.2c-0.1-0.1-0.2-0.3-0.5-0.5c-0.5-0.3-1-0.2-1.3-0.1
					c-0.3,0.2-0.3,0.4,0,0.8c0.4,0.5,0.4,0.9-0.1,1.2c-0.6,0.3-1.5,0.4-2.3-0.1c-0.4-0.2-0.6-0.5-0.7-0.7l0.5-0.2
					c0.1,0.2,0.3,0.4,0.6,0.6c0.5,0.3,1,0.3,1.4,0.1c0.3-0.2,0.3-0.4,0-0.8c-0.4-0.5-0.5-0.9,0.1-1.2C25,12.9,25.9,12.9,26.6,13.4z"
					/>
			</g>
			<g>
				<polygon class="st2" points="24.5,16.5 27.1,14.9 27.6,15.2 25,16.7 				"/>
			</g>
			<g>
				<path class="st2" d="M27.8,14.8c-0.2-0.1-0.2-0.2,0-0.3c0.2-0.1,0.4-0.1,0.6,0s0.2,0.2,0,0.3C28.2,14.9,28,14.9,27.8,14.8z"/>
			</g>
			<g>
				<path class="st2" d="M39.4,20.8l-2.1,1.2c-1.1,0.7-2.2,0.6-3,0.1c-0.8-0.4-0.9-1,0.2-1.7l2.2-1.3l0.5,0.3L35,20.8
					c-0.8,0.5-0.8,0.9-0.3,1.2c0.5,0.3,1.3,0.3,2.1-0.2l2.2-1.3L39.4,20.8z"/>
			</g>
			<g>
				<path class="st2" d="M32.8,18.1c0.4,0.2,0.7,0.7-0.2,1.2l-1.6,0.9L30.6,20l1.5-0.9c0.4-0.2,0.6-0.5,0.2-0.8
					c-0.3-0.2-0.8-0.2-1.1-0.1c-0.1,0-0.2,0.1-0.3,0.1l-1.6,0.9l-0.5-0.3l1.9-1.1c0.3-0.2,0.5-0.3,0.7-0.4l0.4,0.2l-0.4,0.3l0,0
					C31.8,17.9,32.4,17.9,32.8,18.1z"/>
			</g>
			<g>
				<path class="st2" d="M30.3,16.7l0.4,0.2c-0.2,0.1-0.4,0.2-0.7,0.4l-1.5,0.9c-0.6,0.4-1.1,0.5-1.6,0.5c-0.5,0-0.9-0.2-1.3-0.4
					c-0.3-0.2-0.6-0.4-0.7-0.6l0.5-0.1c0.1,0.2,0.3,0.4,0.6,0.6c0.5,0.3,1.1,0.3,1.8,0L28,18c-0.4,0-0.9,0-1.3-0.2
					c-0.7-0.4-0.6-1,0.2-1.4c0.9-0.5,2-0.5,2.6-0.1c0.5,0.3,0.5,0.5,0.4,0.7l0,0L30.3,16.7z M28.7,17.6l0.5-0.3
					c0.1,0,0.2-0.1,0.2-0.1c0.2-0.2,0.2-0.5-0.2-0.7c-0.5-0.3-1.2-0.2-1.8,0.1c-0.5,0.3-0.7,0.7-0.2,1c0.3,0.2,0.8,0.2,1.2,0.1
					C28.5,17.7,28.6,17.6,28.7,17.6"/>
			</g>
			<g>
				<path class="st2" d="M40.6,22.7c0.6,0.4,0.6,1-0.2,1.4c-1,0.6-2,0.5-2.6,0.1c-0.4-0.2-0.5-0.5-0.4-0.7l0,0L36,24.3l-0.5-0.3
					l2.9-1.7c0.3-0.2,0.6-0.4,0.8-0.5l0.4,0.3l-0.4,0.3l0,0C39.7,22.3,40.2,22.4,40.6,22.7z M38.1,23.9c0.5,0.3,1.2,0.2,1.8-0.1
					c0.5-0.3,0.7-0.7,0.2-1c-0.3-0.2-0.9-0.2-1.3-0.1c-0.1,0-0.2,0.1-0.2,0.1l-0.5,0.3c-0.1,0-0.1,0.1-0.2,0.1
					C37.7,23.4,37.8,23.8,38.1,23.9"/>
			</g>
		</g>
	</g>
</g>
<g>
</g>
<g>
</g>
<g>
</g>
<g>
</g>
<g>
</g>
<g>
</g>
<g>
</g>
<g>
</g>
<g>
</g>
<g>
</g>
<g>
</g>
</svg>
